<?xml version="1.0" encoding="iso-8859-1"?>
<!-- Uploaded to: SVG Repo, www.svgrepo.com, Generator: SVG Repo Mixer Tools -->
<svg version="1.1" id="Layer_1" xmlns="http://www.w3.org/2000/svg" xmlns:xlink="http://www.w3.org/1999/xlink" 
	 viewBox="0 0 512 512" xml:space="preserve">
<path style="fill:#F9A926;" d="M448.057,148.669l-70.862-70.862l59.052-59.052c6.523-6.523,17.098-6.523,23.62,0l47.241,47.241
	c6.523,6.523,6.523,17.098,0,23.62L448.057,148.669z"/>
<path style="fill:#DAE1E6;" d="M4.892,473.715c32.563,32.563,85.54,32.563,118.103,0l256.45-256.45l-70.862-70.862L4.892,450.095
	C-1.632,456.618-1.629,467.194,4.892,473.715z"/>
<path style="fill:#B7C4CC;" d="M344.015,181.834l-35.431-35.431L28.512,426.474l0,0c19.568,19.568,51.294,19.568,70.862,0
	L344.015,181.834z"/>
<rect x="331.023" y="66.791" transform="matrix(-0.7071 -0.7071 0.7071 -0.7071 548.2855 516.5762)" style="fill:#665247;" width="100.213" height="155.887"/>
<g>
	
		<rect x="327.086" y="131.962" transform="matrix(-0.7071 -0.7071 0.7071 -0.7071 538.7861 520.5012)" style="fill:#736056;" width="100.213" height="33.404"/>
	
		<rect x="374.325" y="84.728" transform="matrix(-0.7071 -0.7071 0.7071 -0.7071 652.8281 473.2704)" style="fill:#736056;" width="100.213" height="33.404"/>
</g>
<path style="fill:#F9A926;" d="M365.385,254.962l-94.483-94.483c-6.523-6.523-6.523-17.098,0-23.62l0,0
	c6.523-6.523,17.098-6.523,23.62,0l94.483,94.483c6.523,6.523,6.523,17.098,0,23.62l0,0
	C382.482,261.484,371.907,261.484,365.385,254.962z"/>
</svg>